<?xml version="1.0" standalone="no"?>
<!DOCTYPE svg PUBLIC "-//W3C//DTD SVG 20010904//EN"
 "http://www.w3.org/TR/2001/REC-SVG-20010904/DTD/svg10.dtd">
<svg version="1.0" xmlns="http://www.w3.org/2000/svg"
 width="21707.000000pt" height="13571.000000pt" viewBox="0 0 21707.000000 13571.000000"
 preserveAspectRatio="xMidYMid meet">
<metadata>
Created by potrace 1.16, written by Peter Selinger 2001-2019
</metadata>
<g transform="translate(0.000000,13571.000000) scale(0.100000,-0.100000)"
fill="#000000" stroke="none">
<path d="M88995 110948 c-3 -7 -4 -929 -3 -2048 l3 -2035 3 2042 2 2043 238 3
237 2 -238 3 c-183 1 -239 -1 -242 -10z"/>
<path d="M91825 110948 c-3 -7 -4 -688 -3 -1513 l3 -1500 3 1507 2 1508 163 3
162 3 -163 2 c-123 1 -164 -1 -167 -10z"/>
<path d="M108307 110953 l163 -3 3 -2038 2 -2037 0 2040 0 2040 -165 0 -165 1
162 -3z"/>
<path d="M112087 110953 l1252 -3 4 -148 3 -147 -1 150 0 150 -1255 0 -1255 0
1252 -2z"/>
<path d="M120055 110948 c-3 -7 -4 -929 -3 -2048 l3 -2035 3 2043 2 2042 155
0 155 0 3 -2037 2 -2038 0 2040 0 2040 -158 3 c-120 2 -159 0 -162 -10z"/>
<path d="M127605 110948 c-3 -7 -4 -929 -3 -2048 l3 -2035 3 2042 2 2043 238
3 237 2 -238 3 c-183 1 -239 -1 -242 -10z"/>
<path d="M130435 110948 c-3 -7 -4 -683 -3 -1503 l3 -1490 3 1497 2 1498 163
3 162 3 -163 2 c-123 1 -164 -1 -167 -10z"/>
<path d="M105645 107960 c0 -602 1 -849 2 -547 2 301 2 793 0 1095 -1 301 -2
54 -2 -548z"/>
<path d="M111678 108873 c287 -2 757 -2 1045 0 287 1 52 2 -523 2 -575 0 -810
-1 -522 -2z"/>
<path d="M111728 107163 c314 -2 830 -2 1145 0 314 1 57 2 -573 2 -630 0 -887
-1 -572 -2z"/>
<path d="M103585 103948 c-3 -7 -4 -600 -3 -1318 l3 -1305 3 1312 2 1313 163
3 162 3 -163 2 c-123 1 -164 -1 -167 -10z"/>
<path d="M106215 103948 c-3 -7 -4 -929 -3 -2048 l3 -2035 3 2043 2 2042 155
0 155 0 3 -2037 2 -2038 0 2040 0 2040 -158 3 c-120 2 -159 0 -162 -10z"/>
<path d="M113455 103948 c-3 -7 -4 -929 -3 -2048 l3 -2035 3 2043 2 2042 155
0 155 0 3 -2037 2 -2038 0 2040 0 2040 -158 3 c-120 2 -159 0 -162 -10z"/>
<path d="M119127 103953 l163 -3 3 -2038 2 -2037 0 2040 0 2040 -165 0 -165 1
162 -3z"/>
<path d="M121655 103948 c-3 -7 -4 -929 -3 -2048 l3 -2035 3 2043 2 2042 1250
0 1249 0 4 -147 3 -148 -1 150 0 150 -1253 3 c-997 2 -1254 0 -1257 -10z"/>
<path d="M116465 101415 c0 -852 1 -1203 2 -778 2 424 2 1122 0 1550 -1 428
-2 81 -2 -772z"/>
<path d="M121975 101868 c-3 -7 -4 -393 -3 -858 l3 -845 1140 0 1140 0 -1137
2 -1138 3 0 850 0 850 1043 3 1042 2 -1043 3 c-827 1 -1044 -1 -1047 -10z"/>
</g>
</svg>
